<svg xmlns="http://www.w3.org/2000/svg" viewBox="0 0 470.53 428.52"><g id="freepik--Arrows--inject-71"><g><rect x="336.11" y="279.32" width="108.07" height="43.52" transform="matrix(1, 0, 0, 1, 1.09, -1.4)" style="fill:#90CAF9"></rect><polygon points="470.53 299.82 455.77 316.73 441.02 333.64 441.14 299.71 441.26 265.78 455.9 282.8 470.53 299.82" style="fill:#90CAF9"></polygon></g><g><rect x="0.08" y="279.85" width="108.07" height="43.52" transform="matrix(1, 0, 0, 1, 1.09, -0.19)" style="fill:#90CAF9"></rect><polygon points="134.5 300.35 119.74 317.26 104.99 334.18 105.11 300.24 105.23 266.31 119.87 283.33 134.5 300.35" style="fill:#90CAF9"></polygon></g></g><g id="freepik--speech-bubble--inject-71"><g><g><path d="M280.15,48.9l1.13-7.09a27.38,27.38,0,1,1,6.55,7.3h0Z" style="fill:#fff"></path><path d="M280.15,48.9l.48,0,1.46.07,5.74.23a.11.11,0,0,0,.11-.1.06.06,0,0,0,0-.07h0l-.15.14a27.21,27.21,0,0,0,12.06,5.42,28.13,28.13,0,0,0,8.73.15A27.49,27.49,0,0,0,318,51.57a28.2,28.2,0,0,0,8.32-7.15,26.91,26.91,0,0,0,5.14-10.7,28.16,28.16,0,0,0-.05-12.62,27,27,0,0,0-6.09-11.73,28.34,28.34,0,0,0-5.07-4.55c-.95-.6-1.89-1.21-2.88-1.72l-1.51-.72L315.07,2l-.78-.28A28.16,28.16,0,0,0,301.65.14,26.87,26.87,0,0,0,290.32,4a28,28,0,0,0-8.12,7.52,27.4,27.4,0,0,0-4.24,9q-.25,1.15-.48,2.28c-.14.75-.18,1.5-.27,2.22a25.16,25.16,0,0,0-.06,4.24,27.2,27.2,0,0,0,4.05,12.53l0-.07c-.34,2.29-.6,4.07-.78,5.3-.08.58-.15,1-.19,1.36l-.06.45s0-.17.1-.48.14-.79.24-1.38l.9-5.21a.14.14,0,0,0,0-.07,27.38,27.38,0,0,1-3.88-12.45,23.53,23.53,0,0,1,.08-4.18c.09-.72.14-1.46.28-2.2s.32-1.48.48-2.24a27.46,27.46,0,0,1,4.22-8.89,27.86,27.86,0,0,1,8-7.37A26.41,26.41,0,0,1,301.7.64a27.71,27.71,0,0,1,12.41,1.59l.77.27.73.35,1.48.7c1,.51,1.89,1.11,2.83,1.7a28.34,28.34,0,0,1,5,4.46,26.5,26.5,0,0,1,6,11.51,27.73,27.73,0,0,1,.07,12.39,26.57,26.57,0,0,1-5,10.52,27.59,27.59,0,0,1-8.16,7.06,27,27,0,0,1-9.25,3.18,28.2,28.2,0,0,1-8.63-.09,27.39,27.39,0,0,1-12-5.25.1.1,0,0,0-.14,0,.12.12,0,0,0,0,.13v0l.09-.17-5.68-.11-1.49,0Z" style="fill:#263238"></path></g><path d="M298.62,18a11.39,11.39,0,0,1,2.8-1.22L302,14l4.68-.08.67,2.75a11,11,0,0,1,2.84,1.12l2.37-1.55,3.36,3.25-1.46,2.41a11.52,11.52,0,0,1,1.21,2.8l2.77.58.08,4.68-2.74.67a11.66,11.66,0,0,1-1.12,2.84l1.55,2.36L313,39.22l-2.42-1.47A11.32,11.32,0,0,1,307.74,39l-.58,2.77-4.68.08-.67-2.75A11.13,11.13,0,0,1,299,38l-2.36,1.55-3.37-3.25,1.47-2.41a11.55,11.55,0,0,1-1.22-2.8l-2.77-.58-.08-4.67,2.75-.68a11.63,11.63,0,0,1,1.11-2.84L293,19.91l3.25-3.37L298.62,18Zm2.49,6.23a5,5,0,1,0,7.1-.12A5,5,0,0,0,301.11,24.24Z" style="fill:#90CAF9"></path></g></g><g id="freepik--Character--inject-71"><g><g><g><g><path d="M222.7,75.52,222,37.57c-.49-9.44,4.59-17.58,14-17.81l.87,0a16.89,16.89,0,0,1,16.3,16.09c.38,8.18.69,17.22.49,21.6-.42,9.05-9.53,10.15-9.53,10.15s0,5.51,0,8.17l-.46,6.25-5.6,1.42Z" style="fill:#ffbf9d"></path><path d="M244.13,67.32a21.9,21.9,0,0,1-11.68-3.89s2.61,6.91,11.67,6.4Z" style="fill:#ff9a6c"></path><path d="M250.08,44a1.3,1.3,0,0,1-1.29,1.26,1.25,1.25,0,0,1-1.3-1.21,1.3,1.3,0,0,1,1.3-1.27A1.24,1.24,0,0,1,250.08,44Z" style="fill:#263238"></path><path d="M251.1,39.5c-.16.17-1.12-.59-2.51-.64s-2.44.62-2.58.45.1-.38.56-.69a3.47,3.47,0,0,1,2.07-.56,3.35,3.35,0,0,1,2,.72C251.05,39.12,251.19,39.43,251.1,39.5Z" style="fill:#263238"></path><path d="M237.93,43.72A1.28,1.28,0,0,1,236.64,45a1.23,1.23,0,0,1-1.29-1.21,1.29,1.29,0,0,1,1.29-1.26A1.23,1.23,0,0,1,237.93,43.72Z" style="fill:#263238"></path><path d="M237.45,39.36c-.17.16-1.13-.6-2.52-.64s-2.43.62-2.58.44.1-.37.56-.68a3.56,3.56,0,0,1,2.07-.57,3.48,3.48,0,0,1,2,.72C237.39,39,237.53,39.29,237.45,39.36Z" style="fill:#263238"></path><path d="M242.08,50.23a9,9,0,0,1,2.27-.33c.36,0,.7-.09.76-.33a1.74,1.74,0,0,0-.2-1.06c-.3-.87-.62-1.78-1-2.74a49.2,49.2,0,0,1-2.12-7.16c.16-.06,1.37,3.07,2.7,7,.31,1,.62,1.88.91,2.76a2.06,2.06,0,0,1,.14,1.4.91.91,0,0,1-.61.5,2.25,2.25,0,0,1-.6.06A9,9,0,0,1,242.08,50.23Z" style="fill:#263238"></path><path d="M238.05,35c-.21.35-1.54-.07-3.19-.16s-3,.11-3.17-.26c-.07-.17.22-.49.81-.75a5.18,5.18,0,0,1,2.46-.4,5.11,5.11,0,0,1,2.38.72C237.89,34.51,238.14,34.85,238.05,35Z" style="fill:#263238"></path><path d="M251.31,35.41c-.3.31-1.43,0-2.79-.08s-2.52.17-2.78-.17c-.11-.16.07-.48.58-.77a4.43,4.43,0,0,1,2.28-.47,4.22,4.22,0,0,1,2.21.68C251.29,34.93,251.44,35.26,251.31,35.41Z" style="fill:#263238"></path><path d="M222.47,44c-.15-.07-6.16-2.05-6.17,4.15s6.21,4.93,6.22,4.75S222.47,44,222.47,44Z" style="fill:#ffbf9d"></path><path d="M220.63,50.54s-.11.08-.29.16a1.05,1.05,0,0,1-.81,0,2.68,2.68,0,0,1-1.23-2.4,3.62,3.62,0,0,1,.31-1.54,1.24,1.24,0,0,1,.81-.83.56.56,0,0,1,.64.3c.08.17,0,.3.08.31s.13-.11.08-.36a.72.72,0,0,0-.24-.39.81.81,0,0,0-.6-.16,1.51,1.51,0,0,0-1.13,1,3.57,3.57,0,0,0-.38,1.72A2.82,2.82,0,0,0,219.44,51a1.16,1.16,0,0,0,1-.17C220.62,50.69,220.65,50.55,220.63,50.54Z" style="fill:#ff9a6c"></path></g><g><path d="M265.62,27.32a1.46,1.46,0,0,0-.68-.86,4.49,4.49,0,0,0-2.32-.38A13.17,13.17,0,0,1,257,24.63a6.52,6.52,0,0,0,1.67-1.17,3.88,3.88,0,0,0,1.14-3.86.89.89,0,0,0-.48-.6c-.41-.12-.76.27-1,.58a3.37,3.37,0,0,1-3.16,1.33,5.53,5.53,0,0,1-2.36-.71l-.07-.09-1-1h0a20.57,20.57,0,0,0-6.38-4.78,21.12,21.12,0,0,0-11.24-.93c-3.16.82-6,3.37-6.46,6.6-1.77-1.51-4.42-1.51-6.58-.65l-.06,0c-2.4.84-3.78,3.38-4.49,5.82,0,.13-.08.27-.11.4a9.51,9.51,0,0,1-3.25,3.15c-.23.13-.5.29-.53.56s.2.49.41.64a4.77,4.77,0,0,0,1.94.82,10.76,10.76,0,0,1-.8,1.68c-.27.46-.6,1-.36,1.49a1,1,0,0,0,1.05.46,3,3,0,0,0,1.12-.5l-.81,1.92a5.62,5.62,0,0,0,2.61-.16c.5,2.29.87,6.53,1.45,8.09,1.65,0,2-.15,2.88.13,1.07.36.65,2.26,2,1.73.71-.27,1.82-3,2.06-3.69a35.39,35.39,0,0,0,1.6-15,11.46,11.46,0,0,1,3.52-2.52l-.11.1c2.54-.87,5.41-1.73,7.81-.53,1.86.94,2.95,2.88,4.34,4.43a13,13,0,0,0,9.56,4.7c.34,2.74.43,7.21.55,9.77l2.21-5.1v0a8.63,8.63,0,0,0,.46-.91l.05-.09h0c.23-.48.44-1,.73-1.45l0,0a1.59,1.59,0,0,0,2.34-2.12,3.35,3.35,0,0,0-.77-.78,2.53,2.53,0,0,0,2.41.63,2,2,0,0,0,1.41-2,1.71,1.71,0,0,0-1-1.36,5.64,5.64,0,0,0,3.24-.69C265.21,28.72,265.84,28.13,265.62,27.32Z" style="fill:#263238"></path><path d="M230.47,21.09a7.71,7.71,0,0,0-.91.83,6.44,6.44,0,0,0-1.41,3,10.9,10.9,0,0,0-.24,2.3c0,.84.05,1.73.12,2.68a24.22,24.22,0,0,1,.05,3,10.56,10.56,0,0,1-.21,1.57,3.31,3.31,0,0,1-.65,1.52,1.38,1.38,0,0,1-1.28.43,2.09,2.09,0,0,1-1.15-.66,4.68,4.68,0,0,1-.86-2.31l.19,0a7.61,7.61,0,0,1-1.12,1.9,2.65,2.65,0,0,1-1.77.95,1.74,1.74,0,0,1-.93-.16,1.47,1.47,0,0,1-.63-.63,1.49,1.49,0,0,1-.19-.81,1.08,1.08,0,0,1,.29-.7l.1.08a6,6,0,0,1-2,1.46,4.22,4.22,0,0,1-.6.23l-.22,0,.21-.08.58-.26A6.08,6.08,0,0,0,219.77,34l.1.09a1.15,1.15,0,0,0-.07,1.34,1.34,1.34,0,0,0,.57.56,1.61,1.61,0,0,0,.85.14,2.56,2.56,0,0,0,1.64-.9,7.66,7.66,0,0,0,1.07-1.86l.13-.29.06.31A4.62,4.62,0,0,0,225,35.6a1.8,1.8,0,0,0,1,.59,1.16,1.16,0,0,0,1.09-.36,3.14,3.14,0,0,0,.59-1.42,9.18,9.18,0,0,0,.21-1.54,24,24,0,0,0,0-2.95c-.05-1-.11-1.84-.1-2.69a11.93,11.93,0,0,1,.27-2.34,6.52,6.52,0,0,1,1.49-3A3.84,3.84,0,0,1,230.47,21.09Z" style="fill:#455a64"></path><path d="M258.5,30l-.07.06-.23.17a2.83,2.83,0,0,1-.38.24,4.79,4.79,0,0,1-.56.29,7.93,7.93,0,0,1-3.88.68,10.28,10.28,0,0,1-5.47-2A17.82,17.82,0,0,1,243.23,24c-.66-1.1-1.19-2.23-1.78-3.27a11.76,11.76,0,0,0-2-2.77,6.09,6.09,0,0,0-2.6-1.6,4.41,4.41,0,0,0-1.38-.16,5,5,0,0,0-1.26.23,5.22,5.22,0,0,0-2.93,2.46,6.82,6.82,0,0,0-.48,1.36.67.67,0,0,1,0-.1c0-.07,0-.16.05-.28a4.23,4.23,0,0,1,.35-1,4.85,4.85,0,0,1,1-1.37,5.29,5.29,0,0,1,1.93-1.19,5.35,5.35,0,0,1,1.3-.26,4.73,4.73,0,0,1,1.43.16,6.42,6.42,0,0,1,2.7,1.63,12.06,12.06,0,0,1,2.06,2.81c.6,1.05,1.13,2.17,1.78,3.26a17.72,17.72,0,0,0,4.62,5.4,10.19,10.19,0,0,0,5.36,2,8.18,8.18,0,0,0,3.84-.61A12.09,12.09,0,0,0,258.5,30Z" style="fill:#455a64"></path><path d="M259.35,26.06a1.84,1.84,0,0,1-.33.22,6.08,6.08,0,0,1-1,.49,9.08,9.08,0,0,1-1.52.49,10.59,10.59,0,0,1-2,.25,10.16,10.16,0,0,1-2-.14,9.58,9.58,0,0,1-1.55-.41,8.1,8.1,0,0,1-1-.43c-.23-.12-.35-.19-.34-.21s.52.23,1.38.5a10.86,10.86,0,0,0,1.53.36,13,13,0,0,0,1.93.12,11.1,11.1,0,0,0,1.91-.23,11.35,11.35,0,0,0,1.52-.44C258.84,26.31,259.33,26,259.35,26.06Z" style="fill:#455a64"></path></g></g><path d="M242,54.47c-.08-.23-1.54.35-3.07-.49s-2-2.45-2.19-2.39-.15.46.09,1.13a4,4,0,0,0,1.75,2,3.39,3.39,0,0,0,2.53.31C241.73,54.87,242,54.56,242,54.47Z" style="fill:#263238"></path></g><g><path d="M275.85,291.68l3.29,17.13s19,6.09,19.17,9.63l-36.13.66-2.84-27.31Z" style="fill:#263238"></path><path d="M262.18,319.1l-.27-2.56,35.19.17a2.55,2.55,0,0,1,1.4,2Z" style="fill:#e0e0e0"></path><path d="M279.74,308.63c0,.19-.91.25-1.81.81s-1.4,1.32-1.56,1.24.12-1.11,1.23-1.77S279.78,308.47,279.74,308.63Z" style="fill:#455a64"></path><path d="M283.59,310.32c0,.17-.75.47-1.38,1.22s-.82,1.56-1,1.55-.27-1,.53-2S283.59,310.15,283.59,310.32Z" style="fill:#455a64"></path><path d="M285.71,315c-.16,0-.4-.87.08-1.85s1.34-1.36,1.42-1.21-.46.67-.85,1.48S285.89,315,285.71,315Z" style="fill:#455a64"></path><path d="M278.21,304.65c-.08.16-.9-.1-1.92,0s-1.83.35-1.92.19.69-.78,1.89-.82S278.31,304.51,278.21,304.65Z" style="fill:#263238"></path></g><g><path d="M187.91,287.58l-15.09,10.47s10.74,16.84,8.59,19.66L152.5,294.54l23-19.05Z" style="fill:#263238"></path><path d="M152.5,294.54l2.34-1.94,26.75,23a2.59,2.59,0,0,1-.2,2.43Z" style="fill:#e0e0e0"></path><path d="M173.4,298.3c-.13.13-.86-.4-1.92-.54s-1.91.12-2,0,.81-.78,2.08-.58S173.53,298.2,173.4,298.3Z" style="fill:#455a64"></path><path d="M175.28,302.05c-.08.16-.87-.12-1.84.06s-1.63.67-1.76.55.45-1,1.66-1.17S175.39,301.92,175.28,302.05Z" style="fill:#455a64"></path><path d="M173.91,307c-.15-.08.25-.93,1.25-1.38s1.9-.19,1.86,0-.78.22-1.6.6S174.06,307.12,173.91,307Z" style="fill:#455a64"></path><path d="M176,294.78c-.17.08-.63-.65-1.45-1.27s-1.64-.89-1.61-1.07,1-.17,2,.57S176.17,294.73,176,294.78Z" style="fill:#263238"></path></g><g><path d="M197.55,98.38s-18.42,12-19.28,20-3.83,25-.73,35.37,6.08,22.4,14.61,22.6a24.84,24.84,0,0,0,14.06-3.75l10.28-31.29-3.35-35.17-1.2-12.65Z" style="fill:#263238"></path><path d="M199.08,175.63s0,0-.1-.16l-.25-.47c-.22-.43-.53-1.05-.92-1.87-.77-1.62-1.85-4-3.09-7s-2.65-6.54-4-10.59a71.7,71.7,0,0,1-3.27-13.46,93.39,93.39,0,0,1-.51-13.85c.11-4.26.37-8.09.64-11.3s.57-5.8.79-7.58c.12-.87.21-1.56.27-2.06,0-.21.07-.39.09-.53a1.32,1.32,0,0,1,0-.18s0,.06,0,.18,0,.33,0,.54c0,.51-.11,1.19-.2,2.06-.17,1.79-.42,4.39-.66,7.59s-.46,7-.55,11.28a95.53,95.53,0,0,0,.54,13.8,72.86,72.86,0,0,0,3.22,13.4c1.31,4,2.68,7.62,3.89,10.6s2.25,5.36,3,7l.85,1.89c.08.2.16.36.21.5S199.08,175.63,199.08,175.63Z" style="fill:#455a64"></path><path d="M188,144.46a11.91,11.91,0,0,1-1.67,1c-1,.57-2.48,1.36-4,2.31s-2.9,1.86-3.88,2.54a10.2,10.2,0,0,1-1.61,1,7.71,7.71,0,0,1,1.45-1.27,41.08,41.08,0,0,1,3.83-2.65,42.92,42.92,0,0,1,4.1-2.22A7.66,7.66,0,0,1,188,144.46Z" style="fill:#455a64"></path></g><g><path d="M205.57,168.08a15.91,15.91,0,0,0,.2,4.14c.77,4.21.06,11,3.65,16.25,5.48,8,14.78,17.69,14.78,17.69l18.21,44.44,16.17,58,22.23-3.29-11.51-70.9-18.46-66.66Z" style="fill:#263238"></path><path d="M162,282.35l39.46-50.44,7.86-47,30.37,14-9.7,41.6a26.69,26.69,0,0,1-7.73,13.39l-43.12,45Z" style="fill:#263238"></path><path d="M237.26,238s0-.06-.11-.19l-.28-.57c-.23-.51-.6-1.25-1-2.22-.86-2-2-4.81-3.28-8.39s-2.65-7.9-4.5-12.56-4.35-9.67-8.48-13.75c-2-2.1-4-4.07-5.87-6.11-.46-.51-.9-1-1.31-1.57s-.79-1.09-1.17-1.63-.73-1.09-1.08-1.63c-.17-.28-.35-.55-.52-.82l-.46-.83a27.43,27.43,0,0,1-2.71-6.63,22.48,22.48,0,0,1-.63-6.2c0-1,.14-1.86.23-2.72s.26-1.65.46-2.38.33-1.42.53-2,.35-1.19.53-1.69c.33-1,.63-1.78.84-2.3l.24-.59a.71.71,0,0,1,.1-.2l-.06.21-.2.6c-.19.53-.46,1.31-.77,2.32-.17.51-.33,1.08-.5,1.7s-.33,1.3-.49,2-.28,1.53-.43,2.37-.2,1.74-.2,2.68a22.7,22.7,0,0,0,.67,6.12,27.35,27.35,0,0,0,2.71,6.53l.46.82c.17.27.34.54.52.81.35.53.67,1.1,1.07,1.62l1.16,1.61c.41.52.84,1,1.3,1.54,1.82,2,3.86,4,5.87,6.09,4.17,4.13,6.71,9.23,8.53,13.89s3.17,9,4.43,12.6,2.33,6.47,3.15,8.43c.4,1,.74,1.73,1,2.25.1.24.18.43.24.59A.82.82,0,0,1,237.26,238Z" style="fill:#455a64"></path></g><g><path d="M244.62,79.81l7,8.3s17.83,38.68,17.71,43.42-10.72,10.29-10.72,10.29Z" style="fill:#90CAF9"></path><polygon points="221.69 64.76 221.68 62.55 244.14 75.35 244.62 79.81 253.02 102.48 256.96 162.95 253.03 171.79 235.23 176.39 229.25 80.22 221.69 64.76" style="fill:#fafafa"></polygon><path d="M218.65,68.83,209.48,74l-1.67,48.61,1.78,20.85-6.69,34.19.22,4.79,52.4-.19.49-18.42s.48-9.18.51-11.79c.1-7.62-2.82-28.45-4.24-39.48-1.93-15-11.72-32-11.72-32L220.69,63.92Z" style="fill:#90CAF9"></path><path d="M253,129.65s0-.05-.1-.16l-.23-.51c-.21-.48-.51-1.14-.87-2l-3.13-7.25-10.19-24q-1.17-2.79-2.3-5.45l0-.06V90.2c.29-1.38.57-2.74.84-4l.22.22-2.62.49-.1,0-.07-.07-12.3-12.26L218.66,71l-.92-1a2.61,2.61,0,0,1-.3-.34,3,3,0,0,1,.35.3l1,.91,3.59,3.47,12.39,12.15-.16-.05,2.62-.49.28-.06-.05.28c-.27,1.32-.55,2.68-.83,4.06l0-.12c.75,1.77,1.52,3.6,2.31,5.45l10.08,24,3,7.3c.34.85.61,1.51.8,2l.2.52Z" style="fill:#263238"></path><g style="opacity: 0.30000000000000004"><path d="M208.24,150.37l21.47,1.08s12.07,9,16.63,9.09a9.74,9.74,0,0,0,6.69-2.25l3.49-5v-3.17l-13.35.93-7.08-2.86-27.6-.55Z"></path></g><path d="M239.64,95.91l-23.93,38.48a5.42,5.42,0,0,0,1.82,7.53l26.59,16.39a5.9,5.9,0,0,0,7.91-1.62l25.27-36.81a5.43,5.43,0,0,0-1.58-7.67L247.79,94.14A5.89,5.89,0,0,0,239.64,95.91Z" style="fill:#e0e0e0"></path><path d="M249.75,124a3.92,3.92,0,1,1-3.92-3.92A3.91,3.91,0,0,1,249.75,124Z" style="fill:#fff"></path><g style="opacity: 0.30000000000000004"><polygon points="230.59 85.84 232.6 88.76 235.23 87.94 233.96 90.4 237.3 99.68 239.13 96.73 236.39 90.24 237.23 86.19 234.6 86.67 230.29 82.42 230.59 85.84"></polygon></g><g style="opacity: 0.30000000000000004"><polygon points="222.4 125.72 246.57 129.65 252.47 130.21 261.86 123.4 261.24 126.67 256.52 132.05 253.03 139.36 252 143.41 225.37 141.82 220.85 138.65 222.4 125.72"></polygon></g><g><path d="M209,74.31a42.84,42.84,0,0,1,4.88-4.15,8.39,8.39,0,0,1,6.83-.91c1.24.49,7.52,2.33,9.87,14.57,1.46,7.57-8.8,44.14-8.8,44.14l-7.54-1.07s7-28.6,7.68-34.59S224.69,71.21,209,74.31Z" style="fill:#263238"></path><g><path d="M213.74,71.53c0,.11-.41.24-.92.29s-1,0-1-.09.4-.25.93-.3S213.74,71.42,213.74,71.53Z" style="fill:#455a64"></path><path d="M220.94,72.76a7.55,7.55,0,0,1-1.77-.49,6.48,6.48,0,0,1-1.75-.59,3.46,3.46,0,0,1,1.86.21A3.14,3.14,0,0,1,220.94,72.76Z" style="fill:#455a64"></path><path d="M225.37,78.44a5.7,5.7,0,0,1-.94-1.59,5.74,5.74,0,0,1-.74-1.69c.09-.06.62.59,1.09,1.51A3.5,3.5,0,0,1,225.37,78.44Z" style="fill:#455a64"></path><path d="M226.48,85.68a5.83,5.83,0,0,1-.16-1.84,6.18,6.18,0,0,1,0-1.85,3.46,3.46,0,0,1,.37,1.83A3.64,3.64,0,0,1,226.48,85.68Z" style="fill:#455a64"></path><path d="M225.27,93a4.62,4.62,0,0,1,.19-1.84,5,5,0,0,1,.58-1.77,4.06,4.06,0,0,1-.19,1.84A4.41,4.41,0,0,1,225.27,93Z" style="fill:#455a64"></path><path d="M223.51,100.11a4.29,4.29,0,0,1,.25-1.84,4.57,4.57,0,0,1,.64-1.74,4.29,4.29,0,0,1-.25,1.84A4.57,4.57,0,0,1,223.51,100.11Z" style="fill:#455a64"></path><path d="M221.67,107.26a8.69,8.69,0,0,1,.92-3.57,4.35,4.35,0,0,1-.26,1.83A4.41,4.41,0,0,1,221.67,107.26Z" style="fill:#455a64"></path><path d="M219.81,114.4a4.46,4.46,0,0,1,.27-1.83,4.69,4.69,0,0,1,.66-1.74,4.31,4.31,0,0,1-.27,1.84A4.41,4.41,0,0,1,219.81,114.4Z" style="fill:#455a64"></path><path d="M217.93,121.54a4.37,4.37,0,0,1,.28-1.83,4.5,4.5,0,0,1,.66-1.74,4.42,4.42,0,0,1-.28,1.84A4.59,4.59,0,0,1,217.93,121.54Z" style="fill:#455a64"></path><path d="M216.49,127c-.11,0-.08-.47,0-1s.33-.89.44-.87.08.47,0,1S216.59,127,216.49,127Z" style="fill:#455a64"></path></g></g><path d="M218.35,161.88a2.88,2.88,0,0,1-.21.43l-.66,1.2L215,167.89l-.11-.19c5.1.07,12.82.21,21.45.41l2.34,0-.2.21c-.17-2.13-.32-4.2-.47-6.13l.18.17-14.2-.32-4.13-.13-1.11-.05-.4,0a1.46,1.46,0,0,1,.37,0h5.19l14.29.17h.17l0,.18c.15,1.93.31,4,.48,6.13l0,.22h-.22l-2.34-.06c-8.62-.19-16.35-.39-21.45-.54h-.22l.11-.19c1.11-1.83,2-3.31,2.62-4.36l.71-1.15A3.78,3.78,0,0,1,218.35,161.88Z" style="fill:#263238"></path></g><g><g><path d="M262.37,122.33a.68.68,0,0,1,1.11-.08,4.43,4.43,0,0,1,.29,4.93,10.93,10.93,0,0,1-2.91,3.82l6.9,3.53s2.26,1.68,1.31,3.07-1.26,1.16-1.26,1.16a1.82,1.82,0,0,1,.78,2.56,3.08,3.08,0,0,1-2,1.32s-.31,2-.74,2.28a8.6,8.6,0,0,1-2.42.39s-.11,1.31-1.06,1.59-5.18-.25-5.18-.25-4.7-1.54-6.46-2.19l-2.84-.26,1-11.49a12.14,12.14,0,0,0,2.94-.29c1.15-.61,5.62-4.37,5.62-4.37a12.5,12.5,0,0,0,3.48-2.93A30.26,30.26,0,0,0,262.37,122.33Z" style="fill:#ffbf9d"></path><path d="M263.62,137.06a16.23,16.23,0,0,0,2.12.87,15.93,15.93,0,0,0,2.18.72,14.64,14.64,0,0,0-2.12-.88A13.68,13.68,0,0,0,263.62,137.06Z" style="fill:#ff9a6c"></path><path d="M261.23,141a3.76,3.76,0,0,0,.76.32c.47.17,1.13.39,1.87.6s1.42.39,1.91.5a3.43,3.43,0,0,0,.81.13,4.56,4.56,0,0,0-.78-.25l-1.89-.54-1.88-.56A4.62,4.62,0,0,0,261.23,141Z" style="fill:#ff9a6c"></path><path d="M260.36,144.74a6.7,6.7,0,0,0,1.48.33,7.81,7.81,0,0,0,1.51.16,6.7,6.7,0,0,0-1.48-.33A7,7,0,0,0,260.36,144.74Z" style="fill:#ff9a6c"></path></g><g><polygon points="244.59 131.38 248.95 131.84 248.62 145.53 243.74 145.05 244.59 131.38" style="fill:#f5f5f5"></polygon><path d="M244.59,131.38s0,.4,0,1.07-.07,1.7-.13,2.88c-.11,2.44-.28,5.83-.51,9.73l-.18-.2,4.63.44.26,0-.21.19c.13-5.51.27-10.44.39-13.68l.12.13-3.17-.41a11.43,11.43,0,0,1-1.18-.18,8,8,0,0,1,1.12.06l3.26.27h.11v.12c0,3.25-.13,8.17-.26,13.69v.22l-.22,0-.26,0-4.62-.46-.19,0V145c.26-4,.52-7.43.71-9.85.09-1.16.17-2.11.23-2.83A6.87,6.87,0,0,1,244.59,131.38Z" style="fill:#263238"></path></g><g><path d="M211.07,73.2S202.73,76.37,200.54,87s-12.21,46.38-10.17,52.84,9,7.26,23.07,8.23,30,1.92,30,1.92l1.25-19-30.21-4.29s8.79-31.35,9.44-35.88S226,69.85,211.07,73.2Z" style="fill:#90CAF9"></path><path d="M190.37,139.8s0,.08.12.26l.33.78a12.45,12.45,0,0,0,.67,1.19l.53.69a9.23,9.23,0,0,0,.7.7,11.64,11.64,0,0,0,4.48,2.37,37.89,37.89,0,0,0,6.67,1.27c5,.58,11.06.88,17.75,1.31l21.81,1.38-.21.19c0-.33,0-.69.07-1.05.41-6.29.82-12.34,1.19-17.94l.16.2-30.2-4.38h.07l-5.59,3-1.47.78-.38.19-.13.06s0,0,.12-.08l.36-.22,1.44-.83,5.55-3.12,0,0h0l30.22,4.21.18,0,0,.18c-.36,5.6-.76,11.65-1.17,17.94,0,.36,0,.71-.07,1.05v.19h-.2l-21.8-1.41c-6.7-.46-12.72-.78-17.76-1.4a38.23,38.23,0,0,1-6.71-1.34,11.76,11.76,0,0,1-4.52-2.47,9.26,9.26,0,0,1-.69-.73l-.53-.71c-.28-.47-.49-.88-.65-1.22l-.28-.8A2.11,2.11,0,0,1,190.37,139.8Z" style="fill:#263238"></path></g></g></g></g><g id="freepik--Hand--inject-71"><g><path d="M99.53,376.09l17.65-27.31c4.51-12.06,9.43-23.93,12.85-28.61,6.78-9.27,21.32-19.16,44.1-17.41,6.24.48,14.11,2.89,20.15,4.48,8.54,2.25,12.41,2.84,22.52,3.16,18.29.58,62.31-5.52,63.34,15.2s-30.9,18.4-40.65,18-28.43-1.6-35.71.6-30,2.8-30,2.8l-20.94,70Z" style="fill:#ffbf9d"></path><path d="M159.09,408.17,178.31,380c15.26-2.66,46.38-8.21,70-11.7,16.18-2.4,35-5.1,44.93-6.52A24.33,24.33,0,0,0,305.7,356l61.11-53.22s-2.16-15.17-21.07-10.09c0,0-11.38-9.16-30.93,4.19l-26.75,21.29-43-1.88-87.88,8.86-33.31,57.44Z" style="fill:#ffbf9d"></path><path d="M262.24,361.07a3.73,3.73,0,0,1,.58-.22l1.69-.58,6.45-2.13,22.9-7.43-.08.05c6-5.65,13.06-12.12,20.57-18.91,14.64-13.26,27.91-24.76,36.42-31.75l0,.18a14.43,14.43,0,0,0-5.62-7.37,15.08,15.08,0,0,0-2.2-1.21l-.59-.26a.71.71,0,0,1-.2-.1,10.75,10.75,0,0,1,3.08,1.43,14.36,14.36,0,0,1,3.08,2.66,14.16,14.16,0,0,1,2.75,4.75l0,.1-.08.07c-8.43,7.07-21.65,18.63-36.28,31.88-7.51,6.79-14.55,13.25-20.61,18.87l0,0H294l-22.95,7.25-6.49,2-1.72.51A4.42,4.42,0,0,1,262.24,361.07Z" style="fill:#ff9a6c"></path><path d="M195.08,344.65l.26-.06.78-.11,3-.39,11-1.49c4.65-.63,10.2-1.39,16.4-1.94a127.85,127.85,0,0,1,20.22-.35c3.58.2,7.07.37,10.44.25a37.34,37.34,0,0,0,9.54-1.46,22.87,22.87,0,0,0,7.73-4,13.61,13.61,0,0,0,4.38-6.06,12.19,12.19,0,0,0,.31-6.17,11.63,11.63,0,0,0-1.93-4.29,12.52,12.52,0,0,0-2.94-2.76l.24.13.67.41c.28.2.61.48,1,.8a12.1,12.1,0,0,1,1.18,1.3,11.45,11.45,0,0,1,2.05,4.35,12.38,12.38,0,0,1-.24,6.35,14,14,0,0,1-4.46,6.27,23.07,23.07,0,0,1-7.85,4.09,37.68,37.68,0,0,1-9.67,1.5c-3.4.14-6.91,0-10.49-.23a130.87,130.87,0,0,0-20.15.31c-6.18.52-11.73,1.25-16.39,1.83s-8.44,1-11.06,1.32c-1.3.15-2.32.23-3,.3l-.78.06A.92.92,0,0,1,195.08,344.65Z" style="fill:#ff9a6c"></path><rect x="94.46" y="366.96" width="79.25" height="29.23" transform="translate(245.68 -7.17) rotate(35.38)" style="fill:#ebebeb"></rect><polygon points="157.23 428.52 82.26 376.54 98.36 352.75 173.02 405.76 157.23 428.52" style="fill:#90CAF9"></polygon></g></g></svg>
